G75*
%MOIN*%
%OFA0B0*%
%FSLAX25Y25*%
%IPPOS*%
%LPD*%
%AMOC8*
5,1,8,0,0,1.08239X$1,22.5*
%
%ADD10C,0.01000*%
%ADD11C,0.00000*%
D10*
X0001500Y0006500D02*
X0001500Y0166500D01*
X0001502Y0166640D01*
X0001508Y0166780D01*
X0001518Y0166920D01*
X0001531Y0167060D01*
X0001549Y0167199D01*
X0001571Y0167338D01*
X0001596Y0167475D01*
X0001625Y0167613D01*
X0001658Y0167749D01*
X0001695Y0167884D01*
X0001736Y0168018D01*
X0001781Y0168151D01*
X0001829Y0168283D01*
X0001881Y0168413D01*
X0001936Y0168542D01*
X0001995Y0168669D01*
X0002058Y0168795D01*
X0002124Y0168919D01*
X0002193Y0169040D01*
X0002266Y0169160D01*
X0002343Y0169278D01*
X0002422Y0169393D01*
X0002505Y0169507D01*
X0002591Y0169617D01*
X0002680Y0169726D01*
X0002772Y0169832D01*
X0002867Y0169935D01*
X0002964Y0170036D01*
X0003065Y0170133D01*
X0003168Y0170228D01*
X0003274Y0170320D01*
X0003383Y0170409D01*
X0003493Y0170495D01*
X0003607Y0170578D01*
X0003722Y0170657D01*
X0003840Y0170734D01*
X0003960Y0170807D01*
X0004081Y0170876D01*
X0004205Y0170942D01*
X0004331Y0171005D01*
X0004458Y0171064D01*
X0004587Y0171119D01*
X0004717Y0171171D01*
X0004849Y0171219D01*
X0004982Y0171264D01*
X0005116Y0171305D01*
X0005251Y0171342D01*
X0005387Y0171375D01*
X0005525Y0171404D01*
X0005662Y0171429D01*
X0005801Y0171451D01*
X0005940Y0171469D01*
X0006080Y0171482D01*
X0006220Y0171492D01*
X0006360Y0171498D01*
X0006500Y0171500D01*
X0086500Y0171500D01*
X0086640Y0171498D01*
X0086780Y0171492D01*
X0086920Y0171482D01*
X0087060Y0171469D01*
X0087199Y0171451D01*
X0087338Y0171429D01*
X0087475Y0171404D01*
X0087613Y0171375D01*
X0087749Y0171342D01*
X0087884Y0171305D01*
X0088018Y0171264D01*
X0088151Y0171219D01*
X0088283Y0171171D01*
X0088413Y0171119D01*
X0088542Y0171064D01*
X0088669Y0171005D01*
X0088795Y0170942D01*
X0088919Y0170876D01*
X0089040Y0170807D01*
X0089160Y0170734D01*
X0089278Y0170657D01*
X0089393Y0170578D01*
X0089507Y0170495D01*
X0089617Y0170409D01*
X0089726Y0170320D01*
X0089832Y0170228D01*
X0089935Y0170133D01*
X0090036Y0170036D01*
X0090133Y0169935D01*
X0090228Y0169832D01*
X0090320Y0169726D01*
X0090409Y0169617D01*
X0090495Y0169507D01*
X0090578Y0169393D01*
X0090657Y0169278D01*
X0090734Y0169160D01*
X0090807Y0169040D01*
X0090876Y0168919D01*
X0090942Y0168795D01*
X0091005Y0168669D01*
X0091064Y0168542D01*
X0091119Y0168413D01*
X0091171Y0168283D01*
X0091219Y0168151D01*
X0091264Y0168018D01*
X0091305Y0167884D01*
X0091342Y0167749D01*
X0091375Y0167613D01*
X0091404Y0167475D01*
X0091429Y0167338D01*
X0091451Y0167199D01*
X0091469Y0167060D01*
X0091482Y0166920D01*
X0091492Y0166780D01*
X0091498Y0166640D01*
X0091500Y0166500D01*
X0091500Y0006500D01*
X0091498Y0006360D01*
X0091492Y0006220D01*
X0091482Y0006080D01*
X0091469Y0005940D01*
X0091451Y0005801D01*
X0091429Y0005662D01*
X0091404Y0005525D01*
X0091375Y0005387D01*
X0091342Y0005251D01*
X0091305Y0005116D01*
X0091264Y0004982D01*
X0091219Y0004849D01*
X0091171Y0004717D01*
X0091119Y0004587D01*
X0091064Y0004458D01*
X0091005Y0004331D01*
X0090942Y0004205D01*
X0090876Y0004081D01*
X0090807Y0003960D01*
X0090734Y0003840D01*
X0090657Y0003722D01*
X0090578Y0003607D01*
X0090495Y0003493D01*
X0090409Y0003383D01*
X0090320Y0003274D01*
X0090228Y0003168D01*
X0090133Y0003065D01*
X0090036Y0002964D01*
X0089935Y0002867D01*
X0089832Y0002772D01*
X0089726Y0002680D01*
X0089617Y0002591D01*
X0089507Y0002505D01*
X0089393Y0002422D01*
X0089278Y0002343D01*
X0089160Y0002266D01*
X0089040Y0002193D01*
X0088919Y0002124D01*
X0088795Y0002058D01*
X0088669Y0001995D01*
X0088542Y0001936D01*
X0088413Y0001881D01*
X0088283Y0001829D01*
X0088151Y0001781D01*
X0088018Y0001736D01*
X0087884Y0001695D01*
X0087749Y0001658D01*
X0087613Y0001625D01*
X0087475Y0001596D01*
X0087338Y0001571D01*
X0087199Y0001549D01*
X0087060Y0001531D01*
X0086920Y0001518D01*
X0086780Y0001508D01*
X0086640Y0001502D01*
X0086500Y0001500D01*
X0006500Y0001500D01*
X0006360Y0001502D01*
X0006220Y0001508D01*
X0006080Y0001518D01*
X0005940Y0001531D01*
X0005801Y0001549D01*
X0005662Y0001571D01*
X0005525Y0001596D01*
X0005387Y0001625D01*
X0005251Y0001658D01*
X0005116Y0001695D01*
X0004982Y0001736D01*
X0004849Y0001781D01*
X0004717Y0001829D01*
X0004587Y0001881D01*
X0004458Y0001936D01*
X0004331Y0001995D01*
X0004205Y0002058D01*
X0004081Y0002124D01*
X0003960Y0002193D01*
X0003840Y0002266D01*
X0003722Y0002343D01*
X0003607Y0002422D01*
X0003493Y0002505D01*
X0003383Y0002591D01*
X0003274Y0002680D01*
X0003168Y0002772D01*
X0003065Y0002867D01*
X0002964Y0002964D01*
X0002867Y0003065D01*
X0002772Y0003168D01*
X0002680Y0003274D01*
X0002591Y0003383D01*
X0002505Y0003493D01*
X0002422Y0003607D01*
X0002343Y0003722D01*
X0002266Y0003840D01*
X0002193Y0003960D01*
X0002124Y0004081D01*
X0002058Y0004205D01*
X0001995Y0004331D01*
X0001936Y0004458D01*
X0001881Y0004587D01*
X0001829Y0004717D01*
X0001781Y0004849D01*
X0001736Y0004982D01*
X0001695Y0005116D01*
X0001658Y0005251D01*
X0001625Y0005387D01*
X0001596Y0005525D01*
X0001571Y0005662D01*
X0001549Y0005801D01*
X0001531Y0005940D01*
X0001518Y0006080D01*
X0001508Y0006220D01*
X0001502Y0006360D01*
X0001500Y0006500D01*
D11*
X0079900Y0140500D02*
X0079902Y0140580D01*
X0079908Y0140659D01*
X0079918Y0140738D01*
X0079932Y0140817D01*
X0079949Y0140895D01*
X0079971Y0140972D01*
X0079996Y0141047D01*
X0080026Y0141121D01*
X0080058Y0141194D01*
X0080095Y0141265D01*
X0080135Y0141334D01*
X0080178Y0141401D01*
X0080225Y0141466D01*
X0080274Y0141528D01*
X0080327Y0141588D01*
X0080383Y0141645D01*
X0080441Y0141700D01*
X0080502Y0141751D01*
X0080566Y0141799D01*
X0080632Y0141844D01*
X0080700Y0141886D01*
X0080770Y0141924D01*
X0080842Y0141958D01*
X0080915Y0141989D01*
X0080990Y0142017D01*
X0081067Y0142040D01*
X0081144Y0142060D01*
X0081222Y0142076D01*
X0081301Y0142088D01*
X0081380Y0142096D01*
X0081460Y0142100D01*
X0081540Y0142100D01*
X0081620Y0142096D01*
X0081699Y0142088D01*
X0081778Y0142076D01*
X0081856Y0142060D01*
X0081933Y0142040D01*
X0082010Y0142017D01*
X0082085Y0141989D01*
X0082158Y0141958D01*
X0082230Y0141924D01*
X0082300Y0141886D01*
X0082368Y0141844D01*
X0082434Y0141799D01*
X0082498Y0141751D01*
X0082559Y0141700D01*
X0082617Y0141645D01*
X0082673Y0141588D01*
X0082726Y0141528D01*
X0082775Y0141466D01*
X0082822Y0141401D01*
X0082865Y0141334D01*
X0082905Y0141265D01*
X0082942Y0141194D01*
X0082974Y0141121D01*
X0083004Y0141047D01*
X0083029Y0140972D01*
X0083051Y0140895D01*
X0083068Y0140817D01*
X0083082Y0140738D01*
X0083092Y0140659D01*
X0083098Y0140580D01*
X0083100Y0140500D01*
X0083098Y0140420D01*
X0083092Y0140341D01*
X0083082Y0140262D01*
X0083068Y0140183D01*
X0083051Y0140105D01*
X0083029Y0140028D01*
X0083004Y0139953D01*
X0082974Y0139879D01*
X0082942Y0139806D01*
X0082905Y0139735D01*
X0082865Y0139666D01*
X0082822Y0139599D01*
X0082775Y0139534D01*
X0082726Y0139472D01*
X0082673Y0139412D01*
X0082617Y0139355D01*
X0082559Y0139300D01*
X0082498Y0139249D01*
X0082434Y0139201D01*
X0082368Y0139156D01*
X0082300Y0139114D01*
X0082230Y0139076D01*
X0082158Y0139042D01*
X0082085Y0139011D01*
X0082010Y0138983D01*
X0081933Y0138960D01*
X0081856Y0138940D01*
X0081778Y0138924D01*
X0081699Y0138912D01*
X0081620Y0138904D01*
X0081540Y0138900D01*
X0081460Y0138900D01*
X0081380Y0138904D01*
X0081301Y0138912D01*
X0081222Y0138924D01*
X0081144Y0138940D01*
X0081067Y0138960D01*
X0080990Y0138983D01*
X0080915Y0139011D01*
X0080842Y0139042D01*
X0080770Y0139076D01*
X0080700Y0139114D01*
X0080632Y0139156D01*
X0080566Y0139201D01*
X0080502Y0139249D01*
X0080441Y0139300D01*
X0080383Y0139355D01*
X0080327Y0139412D01*
X0080274Y0139472D01*
X0080225Y0139534D01*
X0080178Y0139599D01*
X0080135Y0139666D01*
X0080095Y0139735D01*
X0080058Y0139806D01*
X0080026Y0139879D01*
X0079996Y0139953D01*
X0079971Y0140028D01*
X0079949Y0140105D01*
X0079932Y0140183D01*
X0079918Y0140262D01*
X0079908Y0140341D01*
X0079902Y0140420D01*
X0079900Y0140500D01*
X0079900Y0152500D02*
X0079902Y0152580D01*
X0079908Y0152659D01*
X0079918Y0152738D01*
X0079932Y0152817D01*
X0079949Y0152895D01*
X0079971Y0152972D01*
X0079996Y0153047D01*
X0080026Y0153121D01*
X0080058Y0153194D01*
X0080095Y0153265D01*
X0080135Y0153334D01*
X0080178Y0153401D01*
X0080225Y0153466D01*
X0080274Y0153528D01*
X0080327Y0153588D01*
X0080383Y0153645D01*
X0080441Y0153700D01*
X0080502Y0153751D01*
X0080566Y0153799D01*
X0080632Y0153844D01*
X0080700Y0153886D01*
X0080770Y0153924D01*
X0080842Y0153958D01*
X0080915Y0153989D01*
X0080990Y0154017D01*
X0081067Y0154040D01*
X0081144Y0154060D01*
X0081222Y0154076D01*
X0081301Y0154088D01*
X0081380Y0154096D01*
X0081460Y0154100D01*
X0081540Y0154100D01*
X0081620Y0154096D01*
X0081699Y0154088D01*
X0081778Y0154076D01*
X0081856Y0154060D01*
X0081933Y0154040D01*
X0082010Y0154017D01*
X0082085Y0153989D01*
X0082158Y0153958D01*
X0082230Y0153924D01*
X0082300Y0153886D01*
X0082368Y0153844D01*
X0082434Y0153799D01*
X0082498Y0153751D01*
X0082559Y0153700D01*
X0082617Y0153645D01*
X0082673Y0153588D01*
X0082726Y0153528D01*
X0082775Y0153466D01*
X0082822Y0153401D01*
X0082865Y0153334D01*
X0082905Y0153265D01*
X0082942Y0153194D01*
X0082974Y0153121D01*
X0083004Y0153047D01*
X0083029Y0152972D01*
X0083051Y0152895D01*
X0083068Y0152817D01*
X0083082Y0152738D01*
X0083092Y0152659D01*
X0083098Y0152580D01*
X0083100Y0152500D01*
X0083098Y0152420D01*
X0083092Y0152341D01*
X0083082Y0152262D01*
X0083068Y0152183D01*
X0083051Y0152105D01*
X0083029Y0152028D01*
X0083004Y0151953D01*
X0082974Y0151879D01*
X0082942Y0151806D01*
X0082905Y0151735D01*
X0082865Y0151666D01*
X0082822Y0151599D01*
X0082775Y0151534D01*
X0082726Y0151472D01*
X0082673Y0151412D01*
X0082617Y0151355D01*
X0082559Y0151300D01*
X0082498Y0151249D01*
X0082434Y0151201D01*
X0082368Y0151156D01*
X0082300Y0151114D01*
X0082230Y0151076D01*
X0082158Y0151042D01*
X0082085Y0151011D01*
X0082010Y0150983D01*
X0081933Y0150960D01*
X0081856Y0150940D01*
X0081778Y0150924D01*
X0081699Y0150912D01*
X0081620Y0150904D01*
X0081540Y0150900D01*
X0081460Y0150900D01*
X0081380Y0150904D01*
X0081301Y0150912D01*
X0081222Y0150924D01*
X0081144Y0150940D01*
X0081067Y0150960D01*
X0080990Y0150983D01*
X0080915Y0151011D01*
X0080842Y0151042D01*
X0080770Y0151076D01*
X0080700Y0151114D01*
X0080632Y0151156D01*
X0080566Y0151201D01*
X0080502Y0151249D01*
X0080441Y0151300D01*
X0080383Y0151355D01*
X0080327Y0151412D01*
X0080274Y0151472D01*
X0080225Y0151534D01*
X0080178Y0151599D01*
X0080135Y0151666D01*
X0080095Y0151735D01*
X0080058Y0151806D01*
X0080026Y0151879D01*
X0079996Y0151953D01*
X0079971Y0152028D01*
X0079949Y0152105D01*
X0079932Y0152183D01*
X0079918Y0152262D01*
X0079908Y0152341D01*
X0079902Y0152420D01*
X0079900Y0152500D01*
M02*
