%
M48
M72
T01C0.0240
T02C0.0315
T03C0.0320
T04C0.0350
%
T01
X6990Y14240
T02
X3469Y14650
X4256Y14650
X5044Y14650
X5831Y14650
X5831Y10650
X5044Y10650
X4256Y10650
X3469Y10650
X3469Y6650
X4256Y6650
X5044Y6650
X5831Y6650
X5831Y2650
X5044Y2650
X4256Y2650
X3469Y2650
T03
X8150Y15250
X8150Y14050
T04
X650Y16150
X650Y15150
X650Y14150
X650Y13150
X650Y12150
X650Y11150
X650Y10150
X650Y9150
X650Y8150
X650Y7150
X650Y6150
X650Y5150
X650Y4150
X650Y3150
X650Y2150
X650Y1150
X8650Y12150
X8650Y11150
X8650Y10150
X8650Y9150
X8650Y8150
X8650Y7150
X8650Y6150
X8650Y5150
X8650Y4150
X8650Y3150
X8650Y2150
X8650Y1150
M30
