G75*
%MOIN*%
%OFA0B0*%
%FSLAX25Y25*%
%IPPOS*%
%LPD*%
%AMOC8*
5,1,8,0,0,1.08239X$1,22.5*
%
%ADD10C,0.01100*%
%ADD11C,0.00600*%
%ADD12C,0.00800*%
%ADD13C,0.01000*%
%ADD14C,0.00500*%
%ADD15C,0.00400*%
%ADD16R,0.05000X0.10000*%
%ADD17C,0.00000*%
D10*
X0039550Y0037050D02*
X0041518Y0037050D01*
X0040534Y0037050D02*
X0040534Y0042955D01*
X0039550Y0042955D02*
X0041518Y0042955D01*
X0043847Y0041971D02*
X0044831Y0042955D01*
X0046800Y0042955D01*
X0047784Y0041971D01*
X0047784Y0040987D01*
X0043847Y0037050D01*
X0047784Y0037050D01*
X0050292Y0038034D02*
X0050292Y0041971D01*
X0051277Y0042955D01*
X0053245Y0042955D01*
X0054229Y0041971D01*
X0054229Y0038034D02*
X0053245Y0037050D01*
X0051277Y0037050D01*
X0050292Y0038034D01*
X0051277Y0077050D02*
X0053245Y0077050D01*
X0054229Y0078034D01*
X0054229Y0081971D02*
X0053245Y0082955D01*
X0051277Y0082955D01*
X0050292Y0081971D01*
X0050292Y0078034D01*
X0051277Y0077050D01*
X0047784Y0077050D02*
X0043847Y0077050D01*
X0047784Y0080987D01*
X0047784Y0081971D01*
X0046800Y0082955D01*
X0044831Y0082955D01*
X0043847Y0081971D01*
X0041518Y0082955D02*
X0039550Y0082955D01*
X0040534Y0082955D02*
X0040534Y0077050D01*
X0039550Y0077050D02*
X0041518Y0077050D01*
X0042050Y0117050D02*
X0045003Y0117050D01*
X0045987Y0118034D01*
X0045987Y0121971D01*
X0045003Y0122955D01*
X0042050Y0122955D01*
X0042050Y0117050D01*
X0048495Y0118034D02*
X0049480Y0117050D01*
X0051448Y0117050D01*
X0052432Y0118034D01*
X0052432Y0121971D01*
X0051448Y0122955D01*
X0049480Y0122955D01*
X0048495Y0121971D01*
X0048495Y0120987D01*
X0049480Y0120003D01*
X0052432Y0120003D01*
X0051448Y0157050D02*
X0049480Y0157050D01*
X0048495Y0158034D01*
X0052432Y0161971D01*
X0052432Y0158034D01*
X0051448Y0157050D01*
X0048495Y0158034D02*
X0048495Y0161971D01*
X0049480Y0162955D01*
X0051448Y0162955D01*
X0052432Y0161971D01*
X0045987Y0160987D02*
X0045987Y0157050D01*
X0045987Y0160003D02*
X0042050Y0160003D01*
X0042050Y0160987D02*
X0044018Y0162955D01*
X0045987Y0160987D01*
X0042050Y0160987D02*
X0042050Y0157050D01*
D11*
X0043700Y0132752D02*
X0043700Y0130483D01*
X0043700Y0131617D02*
X0040297Y0131617D01*
X0041431Y0130483D01*
X0041431Y0129069D02*
X0043700Y0129069D01*
X0043700Y0126800D02*
X0041431Y0126800D01*
X0040297Y0127934D01*
X0041431Y0129069D01*
X0041999Y0129069D02*
X0041999Y0126800D01*
X0036200Y0126800D02*
X0033931Y0126800D01*
X0032797Y0127934D01*
X0033931Y0129069D01*
X0036200Y0129069D01*
X0035633Y0130483D02*
X0033364Y0132752D01*
X0035633Y0132752D01*
X0036200Y0132185D01*
X0036200Y0131050D01*
X0035633Y0130483D01*
X0033364Y0130483D01*
X0032797Y0131050D01*
X0032797Y0132185D01*
X0033364Y0132752D01*
X0034499Y0129069D02*
X0034499Y0126800D01*
X0040864Y0096435D02*
X0040297Y0095868D01*
X0040297Y0094733D01*
X0040864Y0094166D01*
X0043133Y0094166D01*
X0040864Y0096435D01*
X0043133Y0096435D01*
X0043700Y0095868D01*
X0043700Y0094733D01*
X0043133Y0094166D01*
X0043700Y0092752D02*
X0043700Y0090483D01*
X0043700Y0091617D02*
X0040297Y0091617D01*
X0041431Y0090483D01*
X0040864Y0089069D02*
X0040297Y0088501D01*
X0040297Y0086800D01*
X0043700Y0086800D01*
X0043700Y0088501D01*
X0043133Y0089069D01*
X0040864Y0089069D01*
X0036200Y0088501D02*
X0036200Y0086800D01*
X0032797Y0086800D01*
X0032797Y0088501D01*
X0033364Y0089069D01*
X0035633Y0089069D01*
X0036200Y0088501D01*
X0035633Y0090483D02*
X0036200Y0091050D01*
X0036200Y0092185D01*
X0035633Y0092752D01*
X0033364Y0092752D01*
X0032797Y0092185D01*
X0032797Y0091050D01*
X0033364Y0090483D01*
X0033931Y0090483D01*
X0034499Y0091050D01*
X0034499Y0092752D01*
X0036200Y0056435D02*
X0036200Y0054166D01*
X0032797Y0054166D01*
X0033364Y0052752D02*
X0032797Y0052185D01*
X0032797Y0051050D01*
X0033364Y0050483D01*
X0035633Y0050483D01*
X0036200Y0051050D01*
X0036200Y0052185D01*
X0035633Y0052752D01*
X0035633Y0049069D02*
X0036200Y0048501D01*
X0036200Y0047367D01*
X0035633Y0046800D01*
X0034499Y0047367D02*
X0034499Y0048501D01*
X0035066Y0049069D01*
X0035633Y0049069D01*
X0034499Y0047367D02*
X0033931Y0046800D01*
X0033364Y0046800D01*
X0032797Y0047367D01*
X0032797Y0048501D01*
X0033364Y0049069D01*
X0040297Y0048501D02*
X0040297Y0047367D01*
X0040864Y0046800D01*
X0041431Y0046800D01*
X0041999Y0047367D01*
X0041999Y0048501D01*
X0042566Y0049069D01*
X0043133Y0049069D01*
X0043700Y0048501D01*
X0043700Y0047367D01*
X0043133Y0046800D01*
X0040864Y0049069D02*
X0040297Y0048501D01*
X0040297Y0050483D02*
X0040297Y0052185D01*
X0040864Y0052752D01*
X0043133Y0052752D01*
X0043700Y0052185D01*
X0043700Y0050483D01*
X0040297Y0050483D01*
X0041431Y0054166D02*
X0040297Y0055301D01*
X0041431Y0056435D01*
X0043700Y0056435D01*
X0043700Y0054166D02*
X0041431Y0054166D01*
X0041999Y0054166D02*
X0041999Y0056435D01*
X0041999Y0016435D02*
X0041999Y0014166D01*
X0041431Y0014166D02*
X0040297Y0015301D01*
X0041431Y0016435D01*
X0043700Y0016435D01*
X0043700Y0014166D02*
X0041431Y0014166D01*
X0040864Y0012752D02*
X0040297Y0012185D01*
X0040297Y0010483D01*
X0043700Y0010483D01*
X0043700Y0012185D01*
X0043133Y0012752D01*
X0040864Y0012752D01*
X0040864Y0009069D02*
X0040297Y0008501D01*
X0040297Y0007367D01*
X0040864Y0006800D01*
X0041431Y0006800D01*
X0041999Y0007367D01*
X0041999Y0008501D01*
X0042566Y0009069D01*
X0043133Y0009069D01*
X0043700Y0008501D01*
X0043700Y0007367D01*
X0043133Y0006800D01*
X0036200Y0007367D02*
X0035633Y0006800D01*
X0036200Y0007367D02*
X0036200Y0008501D01*
X0035633Y0009069D01*
X0035066Y0009069D01*
X0034499Y0008501D01*
X0034499Y0007367D01*
X0033931Y0006800D01*
X0033364Y0006800D01*
X0032797Y0007367D01*
X0032797Y0008501D01*
X0033364Y0009069D01*
X0033364Y0010483D02*
X0032797Y0011050D01*
X0032797Y0012185D01*
X0033364Y0012752D01*
X0032797Y0014166D02*
X0036200Y0014166D01*
X0036200Y0016435D01*
X0035633Y0012752D02*
X0036200Y0012185D01*
X0036200Y0011050D01*
X0035633Y0010483D01*
X0033364Y0010483D01*
X0067367Y0129300D02*
X0068501Y0129300D01*
X0069069Y0129867D01*
X0069069Y0132136D01*
X0068501Y0132703D01*
X0067367Y0132703D01*
X0066800Y0132136D01*
X0066800Y0129867D01*
X0067367Y0129300D01*
X0070483Y0131001D02*
X0071617Y0131001D01*
X0071050Y0132136D02*
X0071050Y0129300D01*
X0073506Y0129300D02*
X0073506Y0132136D01*
X0074073Y0132703D01*
X0074073Y0131001D02*
X0072939Y0131001D01*
X0071617Y0132703D02*
X0071050Y0132136D01*
X0070483Y0159300D02*
X0070483Y0161569D01*
X0072185Y0161569D01*
X0072752Y0161001D01*
X0072752Y0159300D01*
X0069069Y0159867D02*
X0069069Y0162136D01*
X0068501Y0162703D01*
X0067367Y0162703D01*
X0066800Y0162136D01*
X0066800Y0159867D01*
X0067367Y0159300D01*
X0068501Y0159300D01*
X0069069Y0159867D01*
D12*
X0019301Y0086905D02*
X0020001Y0086204D01*
X0020001Y0085504D01*
X0019301Y0086905D02*
X0015798Y0086905D01*
X0015798Y0084803D01*
X0016498Y0084103D01*
X0017899Y0084103D01*
X0018600Y0084803D01*
X0018600Y0086905D01*
X0018600Y0082301D02*
X0016498Y0082301D01*
X0015798Y0081601D01*
X0015798Y0079499D01*
X0018600Y0079499D01*
X0018600Y0077831D02*
X0018600Y0076429D01*
X0018600Y0077130D02*
X0015798Y0077130D01*
X0015798Y0076429D01*
X0014396Y0077130D02*
X0013696Y0077130D01*
X0014396Y0074628D02*
X0018600Y0074628D01*
X0017199Y0073227D01*
X0018600Y0071826D01*
X0014396Y0071826D01*
X0015798Y0070091D02*
X0015798Y0069390D01*
X0017199Y0067989D01*
X0018600Y0067989D02*
X0015798Y0067989D01*
X0016498Y0066187D02*
X0017199Y0066187D01*
X0017199Y0063385D01*
X0017899Y0063385D02*
X0016498Y0063385D01*
X0015798Y0064086D01*
X0015798Y0065487D01*
X0016498Y0066187D01*
X0018600Y0065487D02*
X0018600Y0064086D01*
X0017899Y0063385D01*
X0018600Y0061583D02*
X0016498Y0061583D01*
X0015798Y0060883D01*
X0015798Y0059482D01*
X0016498Y0058781D01*
X0015798Y0057113D02*
X0015798Y0055712D01*
X0015097Y0056412D02*
X0017899Y0056412D01*
X0018600Y0057113D01*
X0018600Y0058781D02*
X0014396Y0058781D01*
X0016498Y0053910D02*
X0018600Y0053910D01*
X0018600Y0051808D01*
X0017899Y0051108D01*
X0017199Y0051808D01*
X0017199Y0053910D01*
X0016498Y0053910D02*
X0015798Y0053210D01*
X0015798Y0051808D01*
X0016498Y0049306D02*
X0015798Y0048606D01*
X0015798Y0047205D01*
X0016498Y0046504D01*
X0017899Y0046504D01*
X0018600Y0047205D01*
X0018600Y0048606D01*
X0017199Y0049306D02*
X0017199Y0046504D01*
X0016498Y0043301D02*
X0016498Y0041900D01*
X0014396Y0041900D02*
X0014396Y0044702D01*
X0014396Y0041900D02*
X0018600Y0041900D01*
X0017199Y0049306D02*
X0016498Y0049306D01*
X0009000Y0006500D02*
X0004000Y0006500D01*
X0016498Y0093310D02*
X0016498Y0094712D01*
X0016498Y0096380D02*
X0017899Y0096380D01*
X0018600Y0097080D01*
X0018600Y0098482D01*
X0017899Y0099182D01*
X0016498Y0099182D01*
X0015798Y0098482D01*
X0015798Y0097080D01*
X0016498Y0096380D01*
X0014396Y0094712D02*
X0015097Y0094011D01*
X0018600Y0094011D01*
X0018600Y0100984D02*
X0015798Y0100984D01*
X0017199Y0100984D02*
X0015798Y0102385D01*
X0015798Y0103085D01*
X0015097Y0109424D02*
X0017899Y0109424D01*
X0018600Y0110125D01*
X0018600Y0111526D01*
X0017899Y0112227D01*
X0016498Y0112227D01*
X0016498Y0110825D01*
X0015798Y0114028D02*
X0018600Y0114028D01*
X0017199Y0114028D02*
X0015798Y0115429D01*
X0015798Y0116130D01*
X0016498Y0117865D02*
X0015798Y0118565D01*
X0015798Y0119967D01*
X0016498Y0120667D01*
X0017899Y0120667D01*
X0018600Y0119967D01*
X0018600Y0118565D01*
X0017899Y0117865D01*
X0016498Y0117865D01*
X0015798Y0122469D02*
X0018600Y0123870D01*
X0015798Y0125271D01*
X0016498Y0127073D02*
X0015798Y0127773D01*
X0015798Y0129174D01*
X0016498Y0129875D01*
X0017199Y0129875D01*
X0017199Y0127073D01*
X0017899Y0127073D02*
X0016498Y0127073D01*
X0017899Y0127073D02*
X0018600Y0127773D01*
X0018600Y0129174D01*
X0015097Y0112227D02*
X0014396Y0111526D01*
X0014396Y0110125D01*
X0015097Y0109424D01*
X0009000Y0166500D02*
X0004000Y0166500D01*
D13*
X0001500Y0166500D02*
X0001500Y0006500D01*
X0011500Y0006500D01*
X0011500Y0166500D01*
X0001500Y0166500D01*
X0001500Y0006500D01*
X0001502Y0006360D01*
X0001508Y0006220D01*
X0001518Y0006080D01*
X0001531Y0005940D01*
X0001549Y0005801D01*
X0001571Y0005662D01*
X0001596Y0005525D01*
X0001625Y0005387D01*
X0001658Y0005251D01*
X0001695Y0005116D01*
X0001736Y0004982D01*
X0001781Y0004849D01*
X0001829Y0004717D01*
X0001881Y0004587D01*
X0001936Y0004458D01*
X0001995Y0004331D01*
X0002058Y0004205D01*
X0002124Y0004081D01*
X0002193Y0003960D01*
X0002266Y0003840D01*
X0002343Y0003722D01*
X0002422Y0003607D01*
X0002505Y0003493D01*
X0002591Y0003383D01*
X0002680Y0003274D01*
X0002772Y0003168D01*
X0002867Y0003065D01*
X0002964Y0002964D01*
X0003065Y0002867D01*
X0003168Y0002772D01*
X0003274Y0002680D01*
X0003383Y0002591D01*
X0003493Y0002505D01*
X0003607Y0002422D01*
X0003722Y0002343D01*
X0003840Y0002266D01*
X0003960Y0002193D01*
X0004081Y0002124D01*
X0004205Y0002058D01*
X0004331Y0001995D01*
X0004458Y0001936D01*
X0004587Y0001881D01*
X0004717Y0001829D01*
X0004849Y0001781D01*
X0004982Y0001736D01*
X0005116Y0001695D01*
X0005251Y0001658D01*
X0005387Y0001625D01*
X0005525Y0001596D01*
X0005662Y0001571D01*
X0005801Y0001549D01*
X0005940Y0001531D01*
X0006080Y0001518D01*
X0006220Y0001508D01*
X0006360Y0001502D01*
X0006500Y0001500D01*
X0086500Y0001500D01*
X0086640Y0001502D01*
X0086780Y0001508D01*
X0086920Y0001518D01*
X0087060Y0001531D01*
X0087199Y0001549D01*
X0087338Y0001571D01*
X0087475Y0001596D01*
X0087613Y0001625D01*
X0087749Y0001658D01*
X0087884Y0001695D01*
X0088018Y0001736D01*
X0088151Y0001781D01*
X0088283Y0001829D01*
X0088413Y0001881D01*
X0088542Y0001936D01*
X0088669Y0001995D01*
X0088795Y0002058D01*
X0088919Y0002124D01*
X0089040Y0002193D01*
X0089160Y0002266D01*
X0089278Y0002343D01*
X0089393Y0002422D01*
X0089507Y0002505D01*
X0089617Y0002591D01*
X0089726Y0002680D01*
X0089832Y0002772D01*
X0089935Y0002867D01*
X0090036Y0002964D01*
X0090133Y0003065D01*
X0090228Y0003168D01*
X0090320Y0003274D01*
X0090409Y0003383D01*
X0090495Y0003493D01*
X0090578Y0003607D01*
X0090657Y0003722D01*
X0090734Y0003840D01*
X0090807Y0003960D01*
X0090876Y0004081D01*
X0090942Y0004205D01*
X0091005Y0004331D01*
X0091064Y0004458D01*
X0091119Y0004587D01*
X0091171Y0004717D01*
X0091219Y0004849D01*
X0091264Y0004982D01*
X0091305Y0005116D01*
X0091342Y0005251D01*
X0091375Y0005387D01*
X0091404Y0005525D01*
X0091429Y0005662D01*
X0091451Y0005801D01*
X0091469Y0005940D01*
X0091482Y0006080D01*
X0091492Y0006220D01*
X0091498Y0006360D01*
X0091500Y0006500D01*
X0091500Y0166500D01*
X0091498Y0166640D01*
X0091492Y0166780D01*
X0091482Y0166920D01*
X0091469Y0167060D01*
X0091451Y0167199D01*
X0091429Y0167338D01*
X0091404Y0167475D01*
X0091375Y0167613D01*
X0091342Y0167749D01*
X0091305Y0167884D01*
X0091264Y0168018D01*
X0091219Y0168151D01*
X0091171Y0168283D01*
X0091119Y0168413D01*
X0091064Y0168542D01*
X0091005Y0168669D01*
X0090942Y0168795D01*
X0090876Y0168919D01*
X0090807Y0169040D01*
X0090734Y0169160D01*
X0090657Y0169278D01*
X0090578Y0169393D01*
X0090495Y0169507D01*
X0090409Y0169617D01*
X0090320Y0169726D01*
X0090228Y0169832D01*
X0090133Y0169935D01*
X0090036Y0170036D01*
X0089935Y0170133D01*
X0089832Y0170228D01*
X0089726Y0170320D01*
X0089617Y0170409D01*
X0089507Y0170495D01*
X0089393Y0170578D01*
X0089278Y0170657D01*
X0089160Y0170734D01*
X0089040Y0170807D01*
X0088919Y0170876D01*
X0088795Y0170942D01*
X0088669Y0171005D01*
X0088542Y0171064D01*
X0088413Y0171119D01*
X0088283Y0171171D01*
X0088151Y0171219D01*
X0088018Y0171264D01*
X0087884Y0171305D01*
X0087749Y0171342D01*
X0087613Y0171375D01*
X0087475Y0171404D01*
X0087338Y0171429D01*
X0087199Y0171451D01*
X0087060Y0171469D01*
X0086920Y0171482D01*
X0086780Y0171492D01*
X0086640Y0171498D01*
X0086500Y0171500D01*
X0006500Y0171500D01*
X0006360Y0171498D01*
X0006220Y0171492D01*
X0006080Y0171482D01*
X0005940Y0171469D01*
X0005801Y0171451D01*
X0005662Y0171429D01*
X0005525Y0171404D01*
X0005387Y0171375D01*
X0005251Y0171342D01*
X0005116Y0171305D01*
X0004982Y0171264D01*
X0004849Y0171219D01*
X0004717Y0171171D01*
X0004587Y0171119D01*
X0004458Y0171064D01*
X0004331Y0171005D01*
X0004205Y0170942D01*
X0004081Y0170876D01*
X0003960Y0170807D01*
X0003840Y0170734D01*
X0003722Y0170657D01*
X0003607Y0170578D01*
X0003493Y0170495D01*
X0003383Y0170409D01*
X0003274Y0170320D01*
X0003168Y0170228D01*
X0003065Y0170133D01*
X0002964Y0170036D01*
X0002867Y0169935D01*
X0002772Y0169832D01*
X0002680Y0169726D01*
X0002591Y0169617D01*
X0002505Y0169507D01*
X0002422Y0169393D01*
X0002343Y0169278D01*
X0002266Y0169160D01*
X0002193Y0169040D01*
X0002124Y0168919D01*
X0002058Y0168795D01*
X0001995Y0168669D01*
X0001936Y0168542D01*
X0001881Y0168413D01*
X0001829Y0168283D01*
X0001781Y0168151D01*
X0001736Y0168018D01*
X0001695Y0167884D01*
X0001658Y0167749D01*
X0001625Y0167613D01*
X0001596Y0167475D01*
X0001571Y0167338D01*
X0001549Y0167199D01*
X0001531Y0167060D01*
X0001518Y0166920D01*
X0001508Y0166780D01*
X0001502Y0166640D01*
X0001500Y0166500D01*
X0026815Y0155161D02*
X0026815Y0137839D01*
X0026815Y0135476D01*
X0033902Y0135476D01*
X0033902Y0137839D01*
X0059098Y0137839D01*
X0059098Y0135476D01*
X0066185Y0135476D01*
X0066185Y0137839D01*
X0066185Y0155161D01*
X0026815Y0155161D01*
X0026815Y0137839D02*
X0033902Y0137839D01*
X0026815Y0115161D02*
X0066185Y0115161D01*
X0066185Y0097839D01*
X0066185Y0095476D01*
X0059098Y0095476D01*
X0059098Y0097839D01*
X0033902Y0097839D01*
X0033902Y0095476D01*
X0026815Y0095476D01*
X0026815Y0097839D01*
X0033902Y0097839D01*
X0026815Y0097839D02*
X0026815Y0115161D01*
X0026815Y0075161D02*
X0066185Y0075161D01*
X0066185Y0057839D01*
X0066185Y0055476D01*
X0059098Y0055476D01*
X0059098Y0057839D01*
X0033902Y0057839D01*
X0033902Y0055476D01*
X0026815Y0055476D01*
X0026815Y0057839D01*
X0033902Y0057839D01*
X0026815Y0057839D02*
X0026815Y0075161D01*
X0026815Y0035161D02*
X0066185Y0035161D01*
X0066185Y0017839D01*
X0066185Y0015476D01*
X0059098Y0015476D01*
X0059098Y0017839D01*
X0033902Y0017839D01*
X0033902Y0015476D01*
X0026815Y0015476D01*
X0026815Y0017839D01*
X0033902Y0017839D01*
X0026815Y0017839D02*
X0026815Y0035161D01*
X0059098Y0017839D02*
X0066185Y0017839D01*
X0066185Y0020594D02*
X0066185Y0032406D01*
X0066185Y0057839D02*
X0059098Y0057839D01*
X0066185Y0060594D02*
X0066185Y0072406D01*
X0066185Y0097839D02*
X0059098Y0097839D01*
X0066185Y0100594D02*
X0066185Y0112406D01*
X0066185Y0137839D02*
X0059098Y0137839D01*
X0066185Y0140594D02*
X0066185Y0152406D01*
D14*
X0075988Y0153587D02*
X0075988Y0151224D01*
X0075988Y0147287D02*
X0075988Y0139413D01*
X0075988Y0135870D02*
X0075988Y0134295D01*
X0078744Y0133508D02*
X0084256Y0133508D01*
X0087000Y0134295D02*
X0087000Y0158705D01*
X0084256Y0159492D02*
X0079138Y0159492D01*
X0075988Y0158705D02*
X0075988Y0157130D01*
X0081500Y0126500D02*
X0081500Y0006500D01*
X0091500Y0006500D01*
X0091500Y0126500D01*
X0081500Y0126500D01*
X0026815Y0110437D02*
X0026815Y0102563D01*
X0026815Y0070437D02*
X0026815Y0062563D01*
X0026815Y0030437D02*
X0026815Y0022563D01*
X0026815Y0142563D02*
X0026815Y0150437D01*
D15*
X0030134Y0142002D02*
X0031068Y0142002D01*
X0030601Y0142002D02*
X0030601Y0139667D01*
X0030134Y0139200D01*
X0029667Y0139200D01*
X0029200Y0139667D01*
X0032147Y0139667D02*
X0032614Y0139200D01*
X0033548Y0139200D01*
X0034015Y0139667D01*
X0034015Y0140134D01*
X0033548Y0140601D01*
X0033081Y0140601D01*
X0033548Y0140601D02*
X0034015Y0141068D01*
X0034015Y0141535D01*
X0033548Y0142002D01*
X0032614Y0142002D01*
X0032147Y0141535D01*
X0031068Y0102002D02*
X0030134Y0102002D01*
X0030601Y0102002D02*
X0030601Y0099667D01*
X0030134Y0099200D01*
X0029667Y0099200D01*
X0029200Y0099667D01*
X0032147Y0100601D02*
X0034015Y0100601D01*
X0033548Y0099200D02*
X0033548Y0102002D01*
X0032147Y0100601D01*
X0032147Y0062002D02*
X0032147Y0060601D01*
X0033081Y0061068D01*
X0033548Y0061068D01*
X0034015Y0060601D01*
X0034015Y0059667D01*
X0033548Y0059200D01*
X0032614Y0059200D01*
X0032147Y0059667D01*
X0032147Y0062002D02*
X0034015Y0062002D01*
X0031068Y0062002D02*
X0030134Y0062002D01*
X0030601Y0062002D02*
X0030601Y0059667D01*
X0030134Y0059200D01*
X0029667Y0059200D01*
X0029200Y0059667D01*
X0030134Y0022002D02*
X0031068Y0022002D01*
X0030601Y0022002D02*
X0030601Y0019667D01*
X0030134Y0019200D01*
X0029667Y0019200D01*
X0029200Y0019667D01*
X0032147Y0019667D02*
X0032614Y0019200D01*
X0033548Y0019200D01*
X0034015Y0019667D01*
X0034015Y0020134D01*
X0033548Y0020601D01*
X0032147Y0020601D01*
X0032147Y0019667D01*
X0032147Y0020601D02*
X0033081Y0021535D01*
X0034015Y0022002D01*
X0016300Y0014015D02*
X0016300Y0012147D01*
X0014432Y0014015D01*
X0013965Y0014015D01*
X0013498Y0013548D01*
X0013498Y0012614D01*
X0013965Y0012147D01*
X0013498Y0011068D02*
X0013498Y0010134D01*
X0013498Y0010601D02*
X0015833Y0010601D01*
X0016300Y0010134D01*
X0016300Y0009667D01*
X0015833Y0009200D01*
X0075998Y0010134D02*
X0075998Y0011068D01*
X0075998Y0010601D02*
X0078333Y0010601D01*
X0078800Y0010134D01*
X0078800Y0009667D01*
X0078333Y0009200D01*
X0078800Y0012147D02*
X0078800Y0014015D01*
X0078800Y0013081D02*
X0075998Y0013081D01*
X0076932Y0012147D01*
X0088965Y0136700D02*
X0088498Y0137167D01*
X0088498Y0138101D01*
X0088965Y0138568D01*
X0089899Y0138101D02*
X0090366Y0138568D01*
X0090833Y0138568D01*
X0091300Y0138101D01*
X0091300Y0137167D01*
X0090833Y0136700D01*
X0089899Y0137167D02*
X0089899Y0138101D01*
X0089899Y0137167D02*
X0089432Y0136700D01*
X0088965Y0136700D01*
X0088498Y0139647D02*
X0091300Y0139647D01*
X0090366Y0140581D01*
X0091300Y0141515D01*
X0088498Y0141515D01*
X0089432Y0142593D02*
X0088498Y0143527D01*
X0091300Y0143527D01*
X0091300Y0142593D02*
X0091300Y0144461D01*
D16*
X0081500Y0146500D03*
D17*
X0079900Y0140500D02*
X0079902Y0140580D01*
X0079908Y0140659D01*
X0079918Y0140738D01*
X0079932Y0140817D01*
X0079949Y0140895D01*
X0079971Y0140972D01*
X0079996Y0141047D01*
X0080026Y0141121D01*
X0080058Y0141194D01*
X0080095Y0141265D01*
X0080135Y0141334D01*
X0080178Y0141401D01*
X0080225Y0141466D01*
X0080274Y0141528D01*
X0080327Y0141588D01*
X0080383Y0141645D01*
X0080441Y0141700D01*
X0080502Y0141751D01*
X0080566Y0141799D01*
X0080632Y0141844D01*
X0080700Y0141886D01*
X0080770Y0141924D01*
X0080842Y0141958D01*
X0080915Y0141989D01*
X0080990Y0142017D01*
X0081067Y0142040D01*
X0081144Y0142060D01*
X0081222Y0142076D01*
X0081301Y0142088D01*
X0081380Y0142096D01*
X0081460Y0142100D01*
X0081540Y0142100D01*
X0081620Y0142096D01*
X0081699Y0142088D01*
X0081778Y0142076D01*
X0081856Y0142060D01*
X0081933Y0142040D01*
X0082010Y0142017D01*
X0082085Y0141989D01*
X0082158Y0141958D01*
X0082230Y0141924D01*
X0082300Y0141886D01*
X0082368Y0141844D01*
X0082434Y0141799D01*
X0082498Y0141751D01*
X0082559Y0141700D01*
X0082617Y0141645D01*
X0082673Y0141588D01*
X0082726Y0141528D01*
X0082775Y0141466D01*
X0082822Y0141401D01*
X0082865Y0141334D01*
X0082905Y0141265D01*
X0082942Y0141194D01*
X0082974Y0141121D01*
X0083004Y0141047D01*
X0083029Y0140972D01*
X0083051Y0140895D01*
X0083068Y0140817D01*
X0083082Y0140738D01*
X0083092Y0140659D01*
X0083098Y0140580D01*
X0083100Y0140500D01*
X0083098Y0140420D01*
X0083092Y0140341D01*
X0083082Y0140262D01*
X0083068Y0140183D01*
X0083051Y0140105D01*
X0083029Y0140028D01*
X0083004Y0139953D01*
X0082974Y0139879D01*
X0082942Y0139806D01*
X0082905Y0139735D01*
X0082865Y0139666D01*
X0082822Y0139599D01*
X0082775Y0139534D01*
X0082726Y0139472D01*
X0082673Y0139412D01*
X0082617Y0139355D01*
X0082559Y0139300D01*
X0082498Y0139249D01*
X0082434Y0139201D01*
X0082368Y0139156D01*
X0082300Y0139114D01*
X0082230Y0139076D01*
X0082158Y0139042D01*
X0082085Y0139011D01*
X0082010Y0138983D01*
X0081933Y0138960D01*
X0081856Y0138940D01*
X0081778Y0138924D01*
X0081699Y0138912D01*
X0081620Y0138904D01*
X0081540Y0138900D01*
X0081460Y0138900D01*
X0081380Y0138904D01*
X0081301Y0138912D01*
X0081222Y0138924D01*
X0081144Y0138940D01*
X0081067Y0138960D01*
X0080990Y0138983D01*
X0080915Y0139011D01*
X0080842Y0139042D01*
X0080770Y0139076D01*
X0080700Y0139114D01*
X0080632Y0139156D01*
X0080566Y0139201D01*
X0080502Y0139249D01*
X0080441Y0139300D01*
X0080383Y0139355D01*
X0080327Y0139412D01*
X0080274Y0139472D01*
X0080225Y0139534D01*
X0080178Y0139599D01*
X0080135Y0139666D01*
X0080095Y0139735D01*
X0080058Y0139806D01*
X0080026Y0139879D01*
X0079996Y0139953D01*
X0079971Y0140028D01*
X0079949Y0140105D01*
X0079932Y0140183D01*
X0079918Y0140262D01*
X0079908Y0140341D01*
X0079902Y0140420D01*
X0079900Y0140500D01*
X0079900Y0152500D02*
X0079902Y0152580D01*
X0079908Y0152659D01*
X0079918Y0152738D01*
X0079932Y0152817D01*
X0079949Y0152895D01*
X0079971Y0152972D01*
X0079996Y0153047D01*
X0080026Y0153121D01*
X0080058Y0153194D01*
X0080095Y0153265D01*
X0080135Y0153334D01*
X0080178Y0153401D01*
X0080225Y0153466D01*
X0080274Y0153528D01*
X0080327Y0153588D01*
X0080383Y0153645D01*
X0080441Y0153700D01*
X0080502Y0153751D01*
X0080566Y0153799D01*
X0080632Y0153844D01*
X0080700Y0153886D01*
X0080770Y0153924D01*
X0080842Y0153958D01*
X0080915Y0153989D01*
X0080990Y0154017D01*
X0081067Y0154040D01*
X0081144Y0154060D01*
X0081222Y0154076D01*
X0081301Y0154088D01*
X0081380Y0154096D01*
X0081460Y0154100D01*
X0081540Y0154100D01*
X0081620Y0154096D01*
X0081699Y0154088D01*
X0081778Y0154076D01*
X0081856Y0154060D01*
X0081933Y0154040D01*
X0082010Y0154017D01*
X0082085Y0153989D01*
X0082158Y0153958D01*
X0082230Y0153924D01*
X0082300Y0153886D01*
X0082368Y0153844D01*
X0082434Y0153799D01*
X0082498Y0153751D01*
X0082559Y0153700D01*
X0082617Y0153645D01*
X0082673Y0153588D01*
X0082726Y0153528D01*
X0082775Y0153466D01*
X0082822Y0153401D01*
X0082865Y0153334D01*
X0082905Y0153265D01*
X0082942Y0153194D01*
X0082974Y0153121D01*
X0083004Y0153047D01*
X0083029Y0152972D01*
X0083051Y0152895D01*
X0083068Y0152817D01*
X0083082Y0152738D01*
X0083092Y0152659D01*
X0083098Y0152580D01*
X0083100Y0152500D01*
X0083098Y0152420D01*
X0083092Y0152341D01*
X0083082Y0152262D01*
X0083068Y0152183D01*
X0083051Y0152105D01*
X0083029Y0152028D01*
X0083004Y0151953D01*
X0082974Y0151879D01*
X0082942Y0151806D01*
X0082905Y0151735D01*
X0082865Y0151666D01*
X0082822Y0151599D01*
X0082775Y0151534D01*
X0082726Y0151472D01*
X0082673Y0151412D01*
X0082617Y0151355D01*
X0082559Y0151300D01*
X0082498Y0151249D01*
X0082434Y0151201D01*
X0082368Y0151156D01*
X0082300Y0151114D01*
X0082230Y0151076D01*
X0082158Y0151042D01*
X0082085Y0151011D01*
X0082010Y0150983D01*
X0081933Y0150960D01*
X0081856Y0150940D01*
X0081778Y0150924D01*
X0081699Y0150912D01*
X0081620Y0150904D01*
X0081540Y0150900D01*
X0081460Y0150900D01*
X0081380Y0150904D01*
X0081301Y0150912D01*
X0081222Y0150924D01*
X0081144Y0150940D01*
X0081067Y0150960D01*
X0080990Y0150983D01*
X0080915Y0151011D01*
X0080842Y0151042D01*
X0080770Y0151076D01*
X0080700Y0151114D01*
X0080632Y0151156D01*
X0080566Y0151201D01*
X0080502Y0151249D01*
X0080441Y0151300D01*
X0080383Y0151355D01*
X0080327Y0151412D01*
X0080274Y0151472D01*
X0080225Y0151534D01*
X0080178Y0151599D01*
X0080135Y0151666D01*
X0080095Y0151735D01*
X0080058Y0151806D01*
X0080026Y0151879D01*
X0079996Y0151953D01*
X0079971Y0152028D01*
X0079949Y0152105D01*
X0079932Y0152183D01*
X0079918Y0152262D01*
X0079908Y0152341D01*
X0079902Y0152420D01*
X0079900Y0152500D01*
M02*
